<svg id="Layer_1" enable-background="new 0 0 464.1 464.1" height="512" viewBox="0 0 464.1 464.1" width="512" xmlns="http://www.w3.org/2000/svg"><path d="m332.4 210.57c-17.965 104.6-180.155 105.863-198.28.34-11.721-68.264-11.855-62.413-9.57-131.4 1.46-44.28 36.81-79.41 79.94-79.41h54.21c44.95 0 81.8 36.61 83.32 82.78 2.182 66.052 1.851 60.721-9.62 127.69z" fill="#ffe773"/><path d="m332.4 210.57c-17.964 104.6-180.154 105.863-198.28.34-8.027-46.747-11.874-61.528-10.52-102.72 19.263.158 38.066-6.297 53.202-18.508 4.715-3.804 11.226-4.466 16.722-1.917 46.829 21.712 98.175 25.997 149.166 15.406 1.534 45.991-1.241 54.574-10.29 107.399z" fill="#ffebd2"/><path d="m320.05 316.1c-6.627 0-12-5.373-12-12s5.373-12 12-12c13.233 0 24-10.767 24-24v-83c0-6.627 5.373-12 12-12s12 5.373 12 12v83c0 26.467-21.533 48-48 48z" fill="#4d4e59"/><path d="m409.535 446.583c.887 9.393-6.501 17.517-15.936 17.517h-323.099c-9.436 0-16.822-8.125-15.935-17.519 5.482-58.072 54.047-103.725 113.485-104.471.01 35.35 28.65 63.99 64 63.99s63.99-28.64 64-63.99c59.499.753 108.006 46.445 113.485 104.473z" fill="#aaa"/><path d="m292.81 362.26c45.738 9.636 81.512 46.365 89.746 92.59.954 5.353 5.607 9.25 11.044 9.25 9.431 0 16.82-8.121 15.93-17.52-5.49-58.11-54.1-103.74-113.48-104.46 0 7.04-1.14 13.81-3.24 20.14z" fill="#999"/><path d="m296.05 342.11c-.01 35.35-28.65 63.99-64 63.99s-63.99-28.64-64-63.99c.571-.012 127.055-.02 128 0z" fill="#ffebd2"/><path d="m380.05 153.34v17.76c0 13.25-10.75 24-24 24h-20.99c4.282-24.972 7.506-40.552 8.05-65.76h12.94c13.25 0 24 10.74 24 24z" fill="#aaa"/><path d="m183.189 143.43c6.029-7.313 17.018-7.832 23.69-1.16 6.233 6.241 6.236 16.376 0 22.62-5.771 5.771-15.101 6.303-21.46 1.06-6.522-5.256-8.062-15.262-2.23-22.52z" fill="#4d4e59"/><path d="m273.01 169.27c-7.418 1.448-14.926-2.416-17.9-9.57-5.465-13.089 7.805-26.347 20.89-20.89 13.953 5.392 13.183 26.958-2.99 30.46z" fill="#4d4e59"/><path d="m281.736 3.412c9.484 2.799 7.348 16.743-2.54 16.68-.453-.003-54.283.018-54.736.018-43.13.01-78.47 35.14-79.92 79.42l-.21 6.24c-7.502 1.831-13.691 2.34-20.74 2.34l.95-28.58c1.45-44.28 36.79-79.41 79.92-79.42 57.588-.021 62.708-.998 77.276 3.302z" fill="#ffec8f"/><path d="m174.793 251.413c6.857 8.333-4.754 19.166-12.663 11.825-14.165-13.147-24.308-30.853-28-52.308-8.195-47.728-11.864-61.773-10.54-102.82 7.072 0 13.347-.514 20.98-2.4-1.292 40.229 2.482 55.175 10.56 102.22 2.905 16.884 9.838 31.543 19.663 43.483z" fill="#fff3e4"/><path d="m332.41 210.55c-1.423 8.3-3.826 16.053-7.066 23.205-3.167 6.991-13.781 2.5-11.016-4.66 2.247-5.82 3.962-12.009 5.083-18.545 8.653-50.408 11.786-61.847 10.35-105.03 4.62-.74 8.93-1.54 12.92-2.37 1.513 45.379-1.161 54.329-10.271 107.4z" fill="#ffdfba"/><path d="m342.77 103.149c-4.01.83-8.37 1.65-13.02 2.38-.679-20.556-.285-29.345-4.645-43.17-1.039-3.293.611-6.829 3.804-8.142 3.591-1.477 7.654.432 8.866 4.121 4.725 14.382 4.295 23.606 4.995 44.811z" fill="#fada86"/><path d="m202.424 398.827c-20.147-10.552-34.367-31.589-34.374-56.717.18-.01 12.39-.01 29.2 0 .005 16.305 6.1 31.183 16.134 42.481 6.701 7.545-2.02 18.918-10.96 14.236z" fill="#ffdfba"/><path d="m171.29 362.26c-45.738 9.636-81.512 46.365-89.747 92.59-.954 5.353-5.607 9.25-11.044 9.25-9.431 0-16.82-8.121-15.93-17.52 5.49-58.11 54.1-103.74 113.48-104.46.001 7.04 1.141 13.81 3.241 20.14z" fill="#b2b2b2"/></svg>